<mxfile host="app.diagrams.net" modified="2021-06-12T11:43:43.036Z" agent="5.0 (Windows NT 10.0; Win64; x64) AppleWebKit/537.36 (KHTML, like Gecko) Chrome/91.0.4472.77 Safari/537.36 Edg/91.0.864.41" etag="jiRE6Sbthl_PaK5x27E0" version="14.7.0" type="github">
  <diagram id="C5RBs43oDa-KdzZeNtuy" name="Page-1">
    <mxGraphModel dx="1550" dy="867" grid="1" gridSize="10" guides="1" tooltips="1" connect="1" arrows="1" fold="1" page="1" pageScale="1" pageWidth="827" pageHeight="1169" math="0" shadow="0">
      <root>
        <mxCell id="WIyWlLk6GJQsqaUBKTNV-0" />
        <mxCell id="WIyWlLk6GJQsqaUBKTNV-1" parent="WIyWlLk6GJQsqaUBKTNV-0" />
        <mxCell id="VbMSzvWsxBJKkRypyw_s-5" value="0" style="swimlane;fontStyle=1;childLayout=stackLayout;horizontal=1;startSize=20;fillColor=#ffffff;horizontalStack=0;resizeParent=1;resizeParentMax=0;resizeLast=0;collapsible=0;marginBottom=0;swimlaneFillColor=#ffffff;" vertex="1" parent="WIyWlLk6GJQsqaUBKTNV-1">
          <mxGeometry x="340" y="360" width="190" height="100" as="geometry" />
        </mxCell>
        <mxCell id="VbMSzvWsxBJKkRypyw_s-6" value="&lt;b&gt;Vaccine Approval process for the fictitious country&lt;/b&gt;" style="text;html=1;strokeColor=none;fillColor=none;align=center;verticalAlign=middle;whiteSpace=wrap;rounded=0;" vertex="1" parent="VbMSzvWsxBJKkRypyw_s-5">
          <mxGeometry y="20" width="190" height="80" as="geometry" />
        </mxCell>
        <mxCell id="VbMSzvWsxBJKkRypyw_s-7" value="VAA" style="html=1;dashed=0;whitespace=wrap;" vertex="1" parent="WIyWlLk6GJQsqaUBKTNV-1">
          <mxGeometry x="160" y="220" width="100" height="50" as="geometry" />
        </mxCell>
        <mxCell id="VbMSzvWsxBJKkRypyw_s-8" value="Sponsor" style="html=1;dashed=0;whitespace=wrap;" vertex="1" parent="WIyWlLk6GJQsqaUBKTNV-1">
          <mxGeometry x="570" y="220" width="100" height="50" as="geometry" />
        </mxCell>
        <mxCell id="VbMSzvWsxBJKkRypyw_s-9" value="NSIC and&amp;nbsp;NSX&amp;nbsp;" style="html=1;dashed=0;whitespace=wrap;" vertex="1" parent="WIyWlLk6GJQsqaUBKTNV-1">
          <mxGeometry x="160" y="535" width="100" height="50" as="geometry" />
        </mxCell>
        <mxCell id="VbMSzvWsxBJKkRypyw_s-10" value="Advisory &lt;br&gt;Committee on &lt;br&gt;Vaccines" style="html=1;dashed=0;whitespace=wrap;" vertex="1" parent="WIyWlLk6GJQsqaUBKTNV-1">
          <mxGeometry x="570" y="535" width="100" height="50" as="geometry" />
        </mxCell>
      </root>
    </mxGraphModel>
  </diagram>
</mxfile>
